<?xml version="1.0"?>
<svg xmlns="http://www.w3.org/2000/svg" xmlns:lc="http://www.librecad.org" xmlns:xlink="http://www.w3.org/1999/xlink" width="19.86081871mm" height="20mm" viewBox="0 0 19.86081871 20">
    <g lc:layername="cy" lc:is_locked="false" lc:is_construction="false" fill="none" stroke="black" stroke-width="1">
        <path d="M16.50760367,7.97488408 A0.15,0.15 0 0,1 16.72674827,8.06328689 "/>
        <path d="M16.81105958,8.38461538 A7,7 0 0,0 16.72674827,8.06328689 "/>
        <path d="M16.81105958,8.38461538 A0.15,0.15 0 0,0 16.95701085,8.5 "/>
        <line x1="16.95701085" y1="8.5" x2="19.71081871" y2="8.5"/>
        <path d="M19.71081871,8.5 A0.15,0.15 0 0,0 19.8586992,8.3248731 "/>
        <path d="M15.00760367,5.37680787 A0.15,0.15 0 0,0 15.04061689,5.14282166 "/>
        <path d="M15.04061689,5.14282166 A7,7 0 0,0 4.95938311,5.14282166 "/>
        <path d="M4.95938311,5.14282166 A0.15,0.15 0 0,0 4.99239633,5.37680787 "/>
        <line x1="10.075" y1="8.22464792" x2="15.00760367" y2="5.37680787"/>
        <line x1="9.925" y1="8.22464792" x2="4.99239633" y2="5.37680787"/>
        <path d="M10.075,8.22464792 A0.15,0.15 0 0,1 9.925,8.22464792 "/>
        <path d="M3.49239633,7.97488408 A0.15,0.15 0 0,0 3.27325173,8.06328689 "/>
        <path d="M3.27325173,8.06328689 A7,7 0 0,0 8.31386861,16.79389144 "/>
        <path d="M8.31386861,16.79389144 A0.15,0.15 0 0,0 8.5,16.64830806 "/>
        <line x1="8.5" y1="10.95262794" x2="8.5" y2="16.64830806"/>
        <line x1="8.425" y1="10.82272413" x2="3.49239633" y2="7.97488408"/>
        <path d="M8.5,10.95262794 A0.15,0.15 0 0,0 8.425,10.82272413 "/>
        <path d="M11.5,16.64830806 A0.15,0.15 0 0,0 11.68613139,16.79389144 "/>
        <line x1="11.575" y1="10.82272413" x2="16.50760367" y2="7.97488408"/>
        <line x1="11.5" y1="10.95262794" x2="11.5" y2="16.64830806"/>
        <path d="M11.575,10.82272413 A0.15,0.15 0 0,0 11.5,10.95262794 "/>
        <path d="M11.68613139,16.79389144 A7,7 0 0,0 16.81105958,11.61538462 "/>
        <path d="M16.81105958,11.61538462 A0.15,0.15 0 0,1 16.95701085,11.5 "/>
        <line x1="16.95701085" y1="11.5" x2="19.71081871" y2="11.5"/>
        <path d="M19.8586992,8.3248731 A10,10 0 1,0 19.8586992,11.6751269 "/>
        <path d="M19.71081871,11.5 A0.15,0.15 0 0,1 19.8586992,11.6751269 "/>
    </g>
    <g lc:layername="color" lc:is_locked="false" lc:is_construction="false" fill="none" stroke="black" stroke-width="1"/>
</svg>
